<mxfile host="app.diagrams.net" modified="2021-05-07T05:04:15.978Z" agent="5.0 (Macintosh; Intel Mac OS X 10_15_7) AppleWebKit/537.36 (KHTML, like Gecko) Chrome/90.0.4430.93 Safari/537.36" etag="AAhL0Q0UCyD2Wgc5yR5c" version="14.6.10" type="github">
  <diagram id="LS9Yh61m0iWJjOiYlPwe" name="Page-1">
    <mxGraphModel dx="2066" dy="1154" grid="1" gridSize="10" guides="1" tooltips="1" connect="1" arrows="1" fold="1" page="1" pageScale="1" pageWidth="850" pageHeight="1100" math="0" shadow="0">
      <root>
        <mxCell id="0" />
        <mxCell id="1" parent="0" />
        <mxCell id="yo4eIV4SqSMJwvBnzDDE-11" style="edgeStyle=orthogonalEdgeStyle;rounded=0;orthogonalLoop=1;jettySize=auto;html=1;fillColor=#d5e8d4;strokeColor=#82b366;" edge="1" parent="1" source="yo4eIV4SqSMJwvBnzDDE-1" target="yo4eIV4SqSMJwvBnzDDE-2">
          <mxGeometry relative="1" as="geometry" />
        </mxCell>
        <mxCell id="yo4eIV4SqSMJwvBnzDDE-15" value="Expected email" style="edgeLabel;html=1;align=center;verticalAlign=middle;resizable=0;points=[];" vertex="1" connectable="0" parent="yo4eIV4SqSMJwvBnzDDE-11">
          <mxGeometry x="-0.1552" y="-2" relative="1" as="geometry">
            <mxPoint y="8" as="offset" />
          </mxGeometry>
        </mxCell>
        <mxCell id="yo4eIV4SqSMJwvBnzDDE-1" value="Valid Email Sender" style="shape=umlActor;html=1;verticalLabelPosition=bottom;verticalAlign=top;align=center;" vertex="1" parent="1">
          <mxGeometry x="80" y="80" width="30" height="60" as="geometry" />
        </mxCell>
        <mxCell id="yo4eIV4SqSMJwvBnzDDE-12" style="edgeStyle=orthogonalEdgeStyle;rounded=0;orthogonalLoop=1;jettySize=auto;html=1;fillColor=#d5e8d4;strokeColor=#82b366;" edge="1" parent="1" source="yo4eIV4SqSMJwvBnzDDE-2" target="yo4eIV4SqSMJwvBnzDDE-4">
          <mxGeometry relative="1" as="geometry" />
        </mxCell>
        <mxCell id="yo4eIV4SqSMJwvBnzDDE-2" value="Internet" style="outlineConnect=0;dashed=0;verticalLabelPosition=bottom;verticalAlign=top;align=center;html=1;shape=mxgraph.aws3.internet_3;fillColor=#D2D3D3;gradientColor=none;" vertex="1" parent="1">
          <mxGeometry x="226" y="83" width="79.5" height="54" as="geometry" />
        </mxCell>
        <mxCell id="yo4eIV4SqSMJwvBnzDDE-3" value="real-email@some-domain.com" style="pointerEvents=1;shadow=0;dashed=0;html=1;strokeColor=none;fillColor=#505050;labelPosition=center;verticalLabelPosition=bottom;verticalAlign=top;outlineConnect=0;align=center;shape=mxgraph.office.concepts.mailbox;" vertex="1" parent="1">
          <mxGeometry x="750" y="85" width="53" height="49" as="geometry" />
        </mxCell>
        <mxCell id="yo4eIV4SqSMJwvBnzDDE-13" style="edgeStyle=orthogonalEdgeStyle;rounded=0;orthogonalLoop=1;jettySize=auto;html=1;entryX=0;entryY=0.5;entryDx=0;entryDy=0;entryPerimeter=0;fillColor=#d5e8d4;strokeColor=#82b366;" edge="1" parent="1" source="yo4eIV4SqSMJwvBnzDDE-4" target="yo4eIV4SqSMJwvBnzDDE-6">
          <mxGeometry relative="1" as="geometry" />
        </mxCell>
        <mxCell id="yo4eIV4SqSMJwvBnzDDE-4" value="random-email@my-domain.com" style="pointerEvents=1;shadow=0;dashed=0;html=1;strokeColor=none;fillColor=#505050;labelPosition=center;verticalLabelPosition=bottom;verticalAlign=top;outlineConnect=0;align=center;shape=mxgraph.office.communications.user_mailbox;" vertex="1" parent="1">
          <mxGeometry x="406" y="82" width="59" height="55" as="geometry" />
        </mxCell>
        <mxCell id="yo4eIV4SqSMJwvBnzDDE-14" style="edgeStyle=orthogonalEdgeStyle;rounded=0;orthogonalLoop=1;jettySize=auto;html=1;fillColor=#d5e8d4;strokeColor=#82b366;" edge="1" parent="1" source="yo4eIV4SqSMJwvBnzDDE-6" target="yo4eIV4SqSMJwvBnzDDE-3">
          <mxGeometry relative="1" as="geometry" />
        </mxCell>
        <mxCell id="yo4eIV4SqSMJwvBnzDDE-6" value="email bouncer" style="points=[[0,0,0],[0.25,0,0],[0.5,0,0],[0.75,0,0],[1,0,0],[0,1,0],[0.25,1,0],[0.5,1,0],[0.75,1,0],[1,1,0],[0,0.25,0],[0,0.5,0],[0,0.75,0],[1,0.25,0],[1,0.5,0],[1,0.75,0]];outlineConnect=0;fontColor=#232F3E;gradientColor=#945DF2;gradientDirection=north;fillColor=#5A30B5;strokeColor=#ffffff;dashed=0;verticalLabelPosition=bottom;verticalAlign=top;align=center;html=1;fontSize=12;fontStyle=0;aspect=fixed;shape=mxgraph.aws4.resourceIcon;resIcon=mxgraph.aws4.serverless;" vertex="1" parent="1">
          <mxGeometry x="567" y="70.5" width="78" height="78" as="geometry" />
        </mxCell>
        <mxCell id="yo4eIV4SqSMJwvBnzDDE-17" style="edgeStyle=orthogonalEdgeStyle;rounded=0;orthogonalLoop=1;jettySize=auto;html=1;fillColor=#f8cecc;strokeColor=#b85450;" edge="1" parent="1" source="yo4eIV4SqSMJwvBnzDDE-16">
          <mxGeometry relative="1" as="geometry">
            <mxPoint x="230" y="150" as="targetPoint" />
          </mxGeometry>
        </mxCell>
        <mxCell id="yo4eIV4SqSMJwvBnzDDE-18" value="Unexpected Email" style="edgeLabel;html=1;align=center;verticalAlign=middle;resizable=0;points=[];" vertex="1" connectable="0" parent="yo4eIV4SqSMJwvBnzDDE-17">
          <mxGeometry x="-0.713" relative="1" as="geometry">
            <mxPoint x="67" y="10" as="offset" />
          </mxGeometry>
        </mxCell>
        <mxCell id="yo4eIV4SqSMJwvBnzDDE-16" value="Unexpected Sender" style="shape=umlActor;html=1;verticalLabelPosition=bottom;verticalAlign=top;align=center;" vertex="1" parent="1">
          <mxGeometry x="80" y="230" width="30" height="60" as="geometry" />
        </mxCell>
        <mxCell id="yo4eIV4SqSMJwvBnzDDE-19" style="edgeStyle=orthogonalEdgeStyle;rounded=0;orthogonalLoop=1;jettySize=auto;html=1;fillColor=#f8cecc;strokeColor=#b85450;" edge="1" parent="1">
          <mxGeometry relative="1" as="geometry">
            <mxPoint x="315.5" y="120" as="sourcePoint" />
            <mxPoint x="390" y="120" as="targetPoint" />
          </mxGeometry>
        </mxCell>
        <mxCell id="yo4eIV4SqSMJwvBnzDDE-20" style="edgeStyle=orthogonalEdgeStyle;rounded=0;orthogonalLoop=1;jettySize=auto;html=1;fillColor=#f8cecc;strokeColor=#b85450;" edge="1" parent="1">
          <mxGeometry relative="1" as="geometry">
            <mxPoint x="480" y="120" as="sourcePoint" />
            <mxPoint x="554.5" y="120" as="targetPoint" />
          </mxGeometry>
        </mxCell>
        <mxCell id="yo4eIV4SqSMJwvBnzDDE-21" value="" style="shape=image;html=1;verticalAlign=top;verticalLabelPosition=bottom;labelBackgroundColor=#ffffff;imageAspect=0;aspect=fixed;image=https://cdn4.iconfinder.com/data/icons/evil-icons-user-interface/64/basket-128.png" vertex="1" parent="1">
          <mxGeometry x="640" y="200" width="80" height="80" as="geometry" />
        </mxCell>
        <mxCell id="yo4eIV4SqSMJwvBnzDDE-22" style="edgeStyle=orthogonalEdgeStyle;rounded=0;orthogonalLoop=1;jettySize=auto;html=1;fillColor=#f8cecc;strokeColor=#b85450;entryX=0.5;entryY=0;entryDx=0;entryDy=0;" edge="1" parent="1" target="yo4eIV4SqSMJwvBnzDDE-21">
          <mxGeometry relative="1" as="geometry">
            <mxPoint x="650" y="120" as="sourcePoint" />
            <mxPoint x="724.5" y="120" as="targetPoint" />
            <Array as="points">
              <mxPoint x="680" y="120" />
            </Array>
          </mxGeometry>
        </mxCell>
      </root>
    </mxGraphModel>
  </diagram>
</mxfile>
